<?xml version="1.0" encoding="utf-8"?>
<!-- Generator: Adobe Illustrator 17.0.0, SVG Export Plug-In . SVG Version: 6.00 Build 0)  -->
<!DOCTYPE svg PUBLIC "-//W3C//DTD SVG 1.1//EN" "http://www.w3.org/Graphics/SVG/1.1/DTD/svg11.dtd">
<svg version="1.1" id="Calque_1" xmlns="http://www.w3.org/2000/svg" xmlns:xlink="http://www.w3.org/1999/xlink" x="0px" y="0px"
	 width="32px" height="32px" viewBox="0 0 32 32" enable-background="new 0 0 32 32" xml:space="preserve">
<path d="M16.262,31.921c-0.227,0-0.455-0.082-0.635-0.248c-0.381-0.351-0.405-0.943-0.054-1.324l13.229-14.364L15.573,1.622
	c-0.351-0.381-0.326-0.974,0.054-1.325c0.38-0.351,0.974-0.326,1.324,0.054l13.229,14.363c0.655,0.712,0.655,1.828,0,2.54
	L16.952,31.619C16.768,31.82,16.515,31.921,16.262,31.921z"/>
<path d="M29.733,16.923H2c-0.518,0-0.937-0.42-0.937-0.937S1.482,15.048,2,15.048h27.733c0.518,0,0.937,0.42,0.937,0.937
	S30.25,16.923,29.733,16.923z"/>
</svg>
