<?xml version="1.0" encoding="utf-8"?>
<!-- Generator: Adobe Illustrator 17.0.0, SVG Export Plug-In . SVG Version: 6.00 Build 0)  -->
<!DOCTYPE svg PUBLIC "-//W3C//DTD SVG 1.1//EN" "http://www.w3.org/Graphics/SVG/1.1/DTD/svg11.dtd">
<svg version="1.1" id="Calque_1" xmlns="http://www.w3.org/2000/svg" xmlns:xlink="http://www.w3.org/1999/xlink" x="0px" y="0px"
	 width="20px" height="20px" viewBox="0 0 20 20" enable-background="new 0 0 20 20" xml:space="preserve">
<path d="M7.959,15.646c-0.139,0-0.279-0.011-0.417-0.032c-0.728-0.114-1.31-0.521-1.613-1.125L2.55,9.451
	C2.258,9.016,2.374,8.427,2.81,8.135c0.435-0.292,1.024-0.176,1.316,0.26l3.497,5.24c0.025,0.057,0.126,0.093,0.212,0.106
	c0.236,0.034,0.602-0.047,0.844-0.317l7.276-8.17c0.347-0.391,0.948-0.426,1.339-0.078c0.391,0.348,0.426,0.948,0.077,1.339
	l-7.275,8.17C9.549,15.297,8.759,15.646,7.959,15.646z"/>
</svg>
