<?xml version="1.0" encoding="utf-8"?>
<!-- Generator: Adobe Illustrator 17.0.0, SVG Export Plug-In . SVG Version: 6.00 Build 0)  -->
<!DOCTYPE svg PUBLIC "-//W3C//DTD SVG 1.1//EN" "http://www.w3.org/Graphics/SVG/1.1/DTD/svg11.dtd">
<svg version="1.1" id="Calque_1" xmlns="http://www.w3.org/2000/svg" xmlns:xlink="http://www.w3.org/1999/xlink" x="0px" y="0px"
	 width="20px" height="20px" viewBox="0 0 20 20" enable-background="new 0 0 20 20" xml:space="preserve">
<path d="M17.254,2.018c0-0.001,0-0.002,0-0.002V1.759c0-0.515-0.395-0.883-0.897-0.859c-0.033,0.002-0.067,0.005-0.101,0.01
	l-9.975,1.48C5.732,2.471,5.283,2.986,5.283,3.535v3.99c0,0.001,0,0.002,0,0.003v6.65c-0.216-0.039-0.438-0.063-0.674-0.052
	c-0.109,0.005-0.22,0.016-0.333,0.033c-1.653,0.245-2.993,1.672-2.993,3.187c0,1.412,1.163,2.402,2.659,2.332
	c0.109-0.005,0.221-0.016,0.333-0.033c1.493-0.221,2.727-1.408,2.952-2.752c0.029-0.095,0.049-0.194,0.049-0.297V8.227l7.98-1.184
	v5.651c-0.213-0.038-0.433-0.06-0.665-0.05c-0.109,0.005-0.221,0.016-0.333,0.033c-1.653,0.245-2.993,1.672-2.993,3.187
	c0,1.412,1.164,2.402,2.66,2.332c0.109-0.005,0.22-0.016,0.333-0.033c1.516-0.225,2.765-1.444,2.962-2.813
	c0.018-0.076,0.031-0.155,0.031-0.236V2.018z M4.075,17.669c-0.044,0.007-0.089,0.011-0.132,0.013
	c-0.247,0.012-0.664-0.066-0.664-0.43c0-0.435,0.524-1.018,1.199-1.118c0.044-0.007,0.089-0.011,0.132-0.013
	c0.247-0.011,0.664,0.066,0.664,0.43C5.274,16.986,4.75,17.569,4.075,17.669z M15.258,5.037l-7.98,1.184V4.247l7.98-1.184V5.037z
	 M14.06,16.188c-0.044,0.007-0.089,0.011-0.132,0.013c-0.247,0.012-0.665-0.066-0.665-0.43c0-0.435,0.524-1.018,1.199-1.118
	c0.044-0.007,0.089-0.011,0.132-0.013c0.247-0.012,0.664,0.066,0.664,0.43C15.258,15.505,14.735,16.088,14.06,16.188z"/>
</svg>
