<?xml version="1.0" encoding="utf-8"?>
<!-- Generator: Adobe Illustrator 17.0.0, SVG Export Plug-In . SVG Version: 6.00 Build 0)  -->
<!DOCTYPE svg PUBLIC "-//W3C//DTD SVG 1.1//EN" "http://www.w3.org/Graphics/SVG/1.1/DTD/svg11.dtd">
<svg version="1.1" id="Calque_1" xmlns="http://www.w3.org/2000/svg" xmlns:xlink="http://www.w3.org/1999/xlink" x="0px" y="0px"
	 width="35px" height="35px" viewBox="0 0 35 35" enable-background="new 0 0 35 35" xml:space="preserve">
<g>
	<path d="M19.592,22.22l0.382,0.643c-0.894,0.923-1.515,1.512-1.864,1.766c-0.349,0.254-0.658,0.382-0.927,0.382
		c-0.385,0-0.694-0.162-0.927-0.485c-0.233-0.323-0.349-0.758-0.349-1.303c0-0.683,0.216-1.824,0.649-3.423
		c0.432-1.599,0.649-2.75,0.649-3.455c0-0.182-0.044-0.327-0.131-0.436c-0.087-0.109-0.2-0.164-0.338-0.164
		c-0.116,0-0.269,0.047-0.458,0.142c-0.189,0.095-0.425,0.24-0.709,0.436l-0.327-0.578l1.45-1.057
		c0.276-0.203,0.516-0.351,0.719-0.441c0.203-0.091,0.396-0.136,0.578-0.136c0.341,0,0.612,0.14,0.812,0.42
		c0.2,0.28,0.3,0.663,0.3,1.15c0,0.531-0.189,1.57-0.567,3.118c-0.087,0.349-0.153,0.61-0.196,0.785
		c-0.204,0.821-0.358,1.501-0.463,2.038c-0.106,0.538-0.158,0.908-0.158,1.112c0,0.182,0.04,0.331,0.12,0.447
		c0.08,0.116,0.182,0.174,0.305,0.174c0.116,0,0.269-0.073,0.458-0.218C18.789,22.991,19.119,22.686,19.592,22.22z M19.505,8.17
		l0.621,0.698c0.174,0.182,0.296,0.343,0.365,0.485c0.069,0.142,0.104,0.285,0.104,0.431c0,0.153-0.053,0.298-0.158,0.436
		c-0.106,0.138-0.26,0.269-0.463,0.392l-0.959,0.534l-0.698-0.828c-0.145-0.182-0.24-0.325-0.283-0.431
		c-0.044-0.105-0.065-0.216-0.065-0.332c0-0.167,0.044-0.314,0.131-0.441c0.087-0.127,0.236-0.252,0.447-0.376L19.505,8.17z"/>
</g>
</svg>
