<?xml version="1.0" encoding="utf-8"?>
<!-- Generator: Adobe Illustrator 17.0.0, SVG Export Plug-In . SVG Version: 6.00 Build 0)  -->
<!DOCTYPE svg PUBLIC "-//W3C//DTD SVG 1.1//EN" "http://www.w3.org/Graphics/SVG/1.1/DTD/svg11.dtd">
<svg version="1.1" id="Calque_1" xmlns="http://www.w3.org/2000/svg" xmlns:xlink="http://www.w3.org/1999/xlink" x="0px" y="0px"
	 width="35px" height="35px" viewBox="0 0 35 35" enable-background="new 0 0 35 35" xml:space="preserve">
<g>
	<path d="M19.905,10.97c0.189,0,0.47,0.149,0.47,0.47v11.699c0,0.321-0.28,0.47-0.47,0.47c-0.05,0-0.099-0.009-0.147-0.026
		l-3.719-3.157l-0.392-0.333h-0.515h-4.555c-0.258,0-0.467-0.21-0.467-0.467v-4.672c0-0.258,0.21-0.467,0.467-0.467h4.555h0.515
		l0.392-0.333l3.719-3.157C19.806,10.979,19.855,10.97,19.905,10.97 M19.905,9.569c-0.309,0-0.625,0.078-0.925,0.249l-3.849,3.267
		h-4.555c-1.032,0-1.869,0.837-1.869,1.869v4.672c0,1.032,0.837,1.869,1.869,1.869h4.555l3.849,3.267
		c0.299,0.171,0.616,0.249,0.925,0.249c0.977,0,1.872-0.781,1.872-1.872V11.44C21.777,10.35,20.882,9.569,19.905,9.569L19.905,9.569
		z"/>
	<path d="M24.686,22.196c-0.136,0-0.273-0.039-0.394-0.122c-0.32-0.218-0.402-0.654-0.184-0.974
		c0.768-1.127,1.174-2.445,1.174-3.811s-0.406-2.684-1.174-3.81c-0.218-0.32-0.136-0.756,0.184-0.974
		c0.32-0.218,0.756-0.136,0.974,0.184c0.928,1.36,1.418,2.951,1.418,4.6s-0.49,3.239-1.418,4.6
		C25.13,22.089,24.909,22.196,24.686,22.196z"/>
</g>
</svg>
